<svg width="18" height="18" viewBox="0 0 18 18" fill="none" xmlns="http://www.w3.org/2000/svg">
<path fill-rule="evenodd" clip-rule="evenodd" d="M8.14725 15.1689C4.26881 15.1689 1.125 12.0251 1.125 8.14725C1.125 4.26881 4.26938 1.125 8.14725 1.125C12.0251 1.125 15.1689 4.26938 15.1689 8.14725C15.1713 9.86258 14.5436 11.519 13.4049 12.8019L16.3642 15.7613C16.4565 15.8482 16.5304 15.9527 16.5815 16.0687C16.6326 16.1847 16.6599 16.3098 16.6618 16.4365C16.6637 16.5632 16.6401 16.689 16.5925 16.8065C16.5449 16.924 16.4742 17.0307 16.3846 17.1203C16.295 17.21 16.1883 17.2807 16.0708 17.3284C15.9534 17.376 15.8276 17.3996 15.7009 17.3978C15.5741 17.396 15.4491 17.3687 15.333 17.3176C15.217 17.2666 15.1125 17.1928 15.0255 17.1006L11.9655 14.0411C10.829 14.7792 9.50241 15.171 8.14725 15.1689ZM8.14725 13.275C9.50729 13.275 10.8116 12.7347 11.7733 11.773C12.735 10.8113 13.2753 9.50701 13.2753 8.14697C13.2753 6.78693 12.735 5.4826 11.7733 4.5209C10.8116 3.55921 9.50729 3.01894 8.14725 3.01894C6.78721 3.01894 5.48288 3.55921 4.52118 4.5209C3.55949 5.4826 3.01922 6.78693 3.01922 8.14697C3.01922 9.50701 3.55949 10.8113 4.52118 11.773C5.48288 12.7347 6.78721 13.275 8.14725 13.275Z" fill="white"/>
</svg>
