<svg width="17" height="17" viewBox="0 0 17 17" fill="none" xmlns="http://www.w3.org/2000/svg">
<path fill-rule="evenodd" clip-rule="evenodd" d="M2.69979 10.4899C3.209 10.4899 3.69736 10.2876 4.05743 9.92755C4.4175 9.56748 4.61979 9.07912 4.61979 8.5699C4.61979 8.06069 4.4175 7.57233 4.05743 7.21226C3.69736 6.85219 3.209 6.6499 2.69979 6.6499C2.19057 6.6499 1.70221 6.85219 1.34214 7.21226C0.98207 7.57233 0.779785 8.06069 0.779785 8.5699C0.779785 9.07912 0.98207 9.56748 1.34214 9.92755C1.70221 10.2876 2.19057 10.4899 2.69979 10.4899ZM10.6998 8.5699C10.6998 9.07912 10.4975 9.56748 10.1374 9.92755C9.77736 10.2876 9.289 10.4899 8.77979 10.4899C8.27057 10.4899 7.78221 10.2876 7.42214 9.92755C7.06207 9.56748 6.85979 9.07912 6.85979 8.5699C6.85979 8.06069 7.06207 7.57233 7.42214 7.21226C7.78221 6.85219 8.27057 6.6499 8.77979 6.6499C9.289 6.6499 9.77736 6.85219 10.1374 7.21226C10.4975 7.57233 10.6998 8.06069 10.6998 8.5699ZM16.7798 8.5699C16.7798 9.07912 16.5775 9.56748 16.2174 9.92755C15.8574 10.2876 15.369 10.4899 14.8598 10.4899C14.3506 10.4899 13.8622 10.2876 13.5021 9.92755C13.1421 9.56748 12.9398 9.07912 12.9398 8.5699C12.9398 8.06069 13.1421 7.57233 13.5021 7.21226C13.8622 6.85219 14.3506 6.6499 14.8598 6.6499C15.369 6.6499 15.8574 6.85219 16.2174 7.21226C16.5775 7.57233 16.7798 8.06069 16.7798 8.5699Z" fill="white"/>
</svg>
